<mxfile host="3d6c04a8-11db-486c-9fbf-6344149c7a9e" modified="2020-08-05T18:46:45.642Z" agent="5.0 (X11; Linux x86_64) AppleWebKit/537.36 (KHTML, like Gecko) Code/1.47.3 Chrome/78.0.3904.130 Electron/7.3.2 Safari/537.36" etag="e-3eLrJGogwkSg8aNsRY" version="13.1.3">
    <diagram id="6hGFLwfOUW9BJ-s0fimq" name="Page-1">
        <mxGraphModel dx="1110" dy="763" grid="1" gridSize="10" guides="1" tooltips="1" connect="1" arrows="1" fold="1" page="1" pageScale="1" pageWidth="827" pageHeight="1169" math="0" shadow="0">
            <root>
                <mxCell id="0"/>
                <mxCell id="1" parent="0"/>
                <mxCell id="33" value="&lt;font color=&quot;#006633&quot;&gt;Sauvegarde &lt;b&gt;EBP&lt;/b&gt;&lt;/font&gt;" style="rounded=0;whiteSpace=wrap;html=1;fillColor=#CCFFCC;strokeColor=#56517e;" vertex="1" parent="1">
                    <mxGeometry x="360" y="440" width="120" height="40" as="geometry"/>
                </mxCell>
                <mxCell id="2" value="&lt;font color=&quot;#000000&quot;&gt;Stackframe de la fonction &lt;b&gt;main&lt;/b&gt;&lt;/font&gt;" style="rounded=0;whiteSpace=wrap;html=1;fillColor=#d0cee2;strokeColor=#56517e;" parent="1" vertex="1">
                    <mxGeometry x="120" y="420" width="120" height="60" as="geometry"/>
                </mxCell>
                <mxCell id="4" value="&lt;font color=&quot;#000000&quot;&gt;Espace libre de la stack&lt;/font&gt;" style="rounded=0;whiteSpace=wrap;html=1;fillColor=#f9f7ed;strokeColor=#36393d;" parent="1" vertex="1">
                    <mxGeometry x="120" y="360" width="120" height="60" as="geometry"/>
                </mxCell>
                <mxCell id="17" value="&lt;b&gt;&lt;font color=&quot;#3333ff&quot;&gt;ESP&lt;/font&gt;&lt;/b&gt;" style="rounded=1;whiteSpace=wrap;html=1;strokeColor=#000000;strokeWidth=2;fillColor=#f5f5f5;fontColor=#333333;" vertex="1" parent="1">
                    <mxGeometry x="160" y="410" width="40" height="20" as="geometry"/>
                </mxCell>
                <mxCell id="22" value="&lt;b&gt;&lt;font color=&quot;#ff1c3a&quot;&gt;EBP&lt;/font&gt;&lt;/b&gt;" style="rounded=1;whiteSpace=wrap;html=1;strokeColor=#000000;strokeWidth=2;fillColor=#f5f5f5;fontColor=#333333;" vertex="1" parent="1">
                    <mxGeometry x="160" y="470" width="40" height="20" as="geometry"/>
                </mxCell>
                <mxCell id="25" value="&lt;font color=&quot;#000000&quot;&gt;Stackframe de la fonction &lt;b&gt;main&lt;/b&gt;&lt;/font&gt;" style="rounded=0;whiteSpace=wrap;html=1;fillColor=#d0cee2;strokeColor=#56517e;" vertex="1" parent="1">
                    <mxGeometry x="360" y="520" width="120" height="60" as="geometry"/>
                </mxCell>
                <mxCell id="26" value="&lt;font color=&quot;#000000&quot;&gt;Espace libre de la stack&lt;/font&gt;" style="rounded=0;whiteSpace=wrap;html=1;fillColor=#f9f7ed;strokeColor=#36393d;" vertex="1" parent="1">
                    <mxGeometry x="360" y="300" width="120" height="60" as="geometry"/>
                </mxCell>
                <mxCell id="30" value="&lt;font color=&quot;#000000&quot;&gt;Stackframe de la fonction &lt;b&gt;f1&lt;/b&gt;&lt;br&gt;(buffer[8])&lt;br&gt;&lt;/font&gt;" style="rounded=0;whiteSpace=wrap;html=1;fillColor=#b1ddf0;strokeColor=#10739e;" vertex="1" parent="1">
                    <mxGeometry x="360" y="360" width="120" height="80" as="geometry"/>
                </mxCell>
                <mxCell id="27" value="&lt;b&gt;&lt;font color=&quot;#3333ff&quot;&gt;ESP&lt;/font&gt;&lt;/b&gt;" style="rounded=1;whiteSpace=wrap;html=1;strokeColor=#000000;strokeWidth=2;fillColor=#f5f5f5;fontColor=#333333;" vertex="1" parent="1">
                    <mxGeometry x="400" y="350" width="40" height="20" as="geometry"/>
                </mxCell>
                <mxCell id="28" value="&lt;b&gt;&lt;font color=&quot;#ff1c3a&quot;&gt;EBP&lt;/font&gt;&lt;/b&gt;" style="rounded=1;whiteSpace=wrap;html=1;strokeColor=#000000;strokeWidth=2;fillColor=#f5f5f5;fontColor=#333333;" vertex="1" parent="1">
                    <mxGeometry x="400" y="430" width="40" height="20" as="geometry"/>
                </mxCell>
                <mxCell id="35" value="&lt;font color=&quot;#660000&quot;&gt;Sauvegarde &lt;b&gt;EIP&lt;/b&gt;&lt;/font&gt;" style="rounded=0;whiteSpace=wrap;html=1;fillColor=#FFCCCC;strokeColor=#56517e;" vertex="1" parent="1">
                    <mxGeometry x="360" y="480" width="120" height="40" as="geometry"/>
                </mxCell>
                <mxCell id="40" value="" style="ellipse;whiteSpace=wrap;html=1;strokeWidth=2;fillColor=none;strokeColor=#FF1C3A;" vertex="1" parent="1">
                    <mxGeometry x="330" y="450" width="180" height="70" as="geometry"/>
                </mxCell>
                <mxCell id="41" value="" style="endArrow=classic;html=1;strokeColor=#FF1C3A;strokeWidth=2;" edge="1" parent="1">
                    <mxGeometry width="50" height="50" relative="1" as="geometry">
                        <mxPoint x="300" y="600" as="sourcePoint"/>
                        <mxPoint x="350" y="510" as="targetPoint"/>
                    </mxGeometry>
                </mxCell>
                <mxCell id="42" value="&lt;div&gt;&lt;font color=&quot;#ff1c3a&quot;&gt;Permet de revenir&amp;nbsp;&lt;/font&gt;&lt;/div&gt;&lt;font color=&quot;#ff1c3a&quot;&gt;à&lt;/font&gt;&lt;span style=&quot;color: rgb(255 , 28 , 58)&quot;&gt;&amp;nbsp;la fonction appelante &lt;i&gt;(continuer le flux d'execution)&lt;/i&gt;&lt;/span&gt;&lt;font color=&quot;#ff1c3a&quot;&gt;&lt;br&gt;&lt;/font&gt;" style="text;strokeColor=none;fillColor=none;html=1;whiteSpace=wrap;verticalAlign=middle;overflow=hidden;" vertex="1" parent="1">
                    <mxGeometry x="200" y="600" width="160" height="50" as="geometry"/>
                </mxCell>
                <mxCell id="43" value="La Stack &lt;br&gt;avant l'appel de &lt;i&gt;f1&lt;/i&gt;" style="text;strokeColor=none;fillColor=none;html=1;fontSize=24;fontStyle=1;verticalAlign=middle;align=center;" vertex="1" parent="1">
                    <mxGeometry x="80.5" y="220" width="199" height="69" as="geometry"/>
                </mxCell>
                <mxCell id="47" value="La Stack &lt;br&gt;après l'appel de &lt;i&gt;f1&lt;/i&gt;" style="text;strokeColor=none;fillColor=none;html=1;fontSize=24;fontStyle=1;verticalAlign=middle;align=center;" vertex="1" parent="1">
                    <mxGeometry x="311" y="220" width="218" height="69" as="geometry"/>
                </mxCell>
                <mxCell id="50" value="" style="endArrow=none;html=1;strokeWidth=2;strokeColor=#000000;" edge="1" parent="1">
                    <mxGeometry width="50" height="50" relative="1" as="geometry">
                        <mxPoint x="300" y="560" as="sourcePoint"/>
                        <mxPoint x="300" y="230" as="targetPoint"/>
                    </mxGeometry>
                </mxCell>
            </root>
        </mxGraphModel>
    </diagram>
</mxfile>